<?xml version="1.0" encoding="utf-8"?>
<!-- Generator: Adobe Illustrator 27.0.0, SVG Export Plug-In . SVG Version: 6.00 Build 0)  -->
<svg version="1.1" id="Layer_1" xmlns="http://www.w3.org/2000/svg" xmlns:xlink="http://www.w3.org/1999/xlink" x="0px" y="0px"
	 viewBox="0 0 100 100" style="enable-background:new 0 0 100 100;" xml:space="preserve">
<style type="text/css">
	.st0{fill:none;}
</style>
<g id="SVGRepo_bgCarrier">
</g>
<g id="SVGRepo_tracerCarrier">
</g>
<g id="invisible_box">
	<rect class="st0" width="100" height="100"/>
</g>
<g id="Medical">
	<g>
		<path d="M66.7,20.8H43.8v-8.3h10.4c2.3,0,4.2-1.9,4.2-4.2s-1.9-4.2-4.2-4.2H25c-2.3,0-4.2,1.9-4.2,4.2s1.9,4.2,4.2,4.2h10.4v8.3
			H18.8c-3.3-0.1-6.1,2.5-6.2,5.8c0,0.1,0,0.3,0,0.4v16.7c-0.1,3.3,2.5,6.1,5.8,6.2c0.1,0,0.3,0,0.4,0h39.6v14.6
			c-0.1,3.3,2.5,6.1,5.8,6.2c0.1,0,0.3,0,0.4,0h16.7c3.3,0.1,6.1-2.5,6.2-5.8c0-0.1,0-0.3,0-0.4V41.7C87.5,30.2,78.2,20.8,66.7,20.8
			z M79.2,62.5H66.7V47.9c0.1-3.3-2.5-6.1-5.8-6.2c-0.1,0-0.3,0-0.4,0H20.8V29.2h45.8c6.9,0,12.5,5.6,12.5,12.5V62.5z"/>
		<path d="M72.9,75l-6.2,7.1c-3,3.3-2.7,8.5,0.6,11.5c0.1,0.1,0.1,0.1,0.2,0.2c3.1,2.7,7.7,2.7,10.8,0c3.4-2.9,3.9-8,1-11.4
			c-0.1-0.1-0.1-0.1-0.2-0.2L72.9,75z"/>
	</g>
</g>
</svg>
