<!DOCTYPE svg PUBLIC "-//W3C//DTD SVG 1.1//EN" "http://www.w3.org/Graphics/SVG/1.1/DTD/svg11.dtd">
<!-- Uploaded to: SVG Repo, www.svgrepo.com, Transformed by: SVG Repo Mixer Tools -->
<svg width="100px" height="100px" viewBox="0 0 48 48" xmlns="http://www.w3.org/2000/svg" fill="#000000">
<g id="SVGRepo_bgCarrier" stroke-width="0"/>
<g id="SVGRepo_tracerCarrier" stroke-linecap="round" stroke-linejoin="round"/>
<g id="SVGRepo_iconCarrier"> <g id="Layer_2" data-name="Layer 2"> <g id="invisible_box" data-name="invisible box"> <rect width="48" height="48" fill="none"/> </g> <g id="Medical"> <g> <path d="M32,10H21V6h5a2,2,0,0,0,0-4H12a2,2,0,0,0,0,4h5v4H9a2.9,2.9,0,0,0-3,3v8a2.9,2.9,0,0,0,3,3H28v7a2.9,2.9,0,0,0,3,3h8a2.9,2.9,0,0,0,3-3V20A10,10,0,0,0,32,10Zm6,20H32V23a2.9,2.9,0,0,0-3-3H10V14H32a6,6,0,0,1,6,6Z"/> <path d="M35,36l-3,3.4a3.9,3.9,0,0,0,.4,5.6,4,4,0,0,0,5.2,0,3.9,3.9,0,0,0,.4-5.6Z"/> </g> </g> </g> </g>
</svg>